<svg width="30" height="29" viewBox="0 0 30 29" fill="none" xmlns="http://www.w3.org/2000/svg">
<path d="M6.05588 19.9855C4.70914 17.7152 4.2375 15.0314 4.72952 12.438C5.22155 9.84455 6.64339 7.51996 8.72805 5.90069C10.8127 4.28142 13.4168 3.47886 16.0513 3.64372C18.6858 3.80858 21.1696 4.92952 23.0361 6.79605C24.9026 8.66257 26.0236 11.1463 26.1885 13.7808C26.3533 16.4153 25.5508 19.0194 23.9315 21.1041C22.3123 23.1888 19.9877 24.6106 17.3943 25.1027C14.8009 25.5947 12.117 25.1231 9.84675 23.7763L9.84678 23.7762L6.10301 24.8459C5.94812 24.8901 5.78421 24.8922 5.62827 24.8517C5.47233 24.8113 5.33003 24.73 5.21612 24.6161C5.10222 24.5022 5.02084 24.3599 4.98043 24.2039C4.94003 24.048 4.94206 23.8841 4.98631 23.7292L6.05596 19.9854L6.05588 19.9855Z" stroke="#0A6CFF" stroke-width="1.80659" stroke-linecap="round" stroke-linejoin="round"/>
<path d="M15.3787 15.8078C16.127 15.8078 16.7336 15.2012 16.7336 14.4528C16.7336 13.7045 16.127 13.0979 15.3787 13.0979C14.6304 13.0979 14.0237 13.7045 14.0237 14.4528C14.0237 15.2012 14.6304 15.8078 15.3787 15.8078Z" fill="#0A6CFF"/>
<path d="M9.95943 15.8078C10.7077 15.8078 11.3144 15.2012 11.3144 14.4528C11.3144 13.7045 10.7077 13.0979 9.95943 13.0979C9.21112 13.0979 8.60449 13.7045 8.60449 14.4528C8.60449 15.2012 9.21112 15.8078 9.95943 15.8078Z" fill="#0A6CFF"/>
<path d="M20.799 15.8078C21.5473 15.8078 22.1539 15.2012 22.1539 14.4528C22.1539 13.7045 21.5473 13.0979 20.799 13.0979C20.0507 13.0979 19.444 13.7045 19.444 14.4528C19.444 15.2012 20.0507 15.8078 20.799 15.8078Z" fill="#0A6CFF"/>
</svg>
