<svg width="25" height="24" viewBox="0 0 25 24" fill="none" xmlns="http://www.w3.org/2000/svg">
<path d="M12.3588 22.8065C18.3453 22.8065 23.1983 17.9535 23.1983 11.967C23.1983 5.98046 18.3453 1.12744 12.3588 1.12744C6.37231 1.12744 1.51929 5.98046 1.51929 11.967C1.51929 17.9535 6.37231 22.8065 12.3588 22.8065Z" stroke="#CC2539" stroke-width="1.80659" stroke-miterlimit="10"/>
<path d="M17.0534 17.3871C16.5772 16.5635 15.8928 15.8796 15.0687 15.4042C14.2447 14.9288 13.3101 14.6785 12.3587 14.6785C11.4074 14.6785 10.4728 14.9287 9.64876 15.4041C8.82472 15.8795 8.14025 16.5634 7.66406 17.387" stroke="#CC2539" stroke-width="1.80659" stroke-linecap="round" stroke-linejoin="round"/>
<path d="M8.29385 11.0641C9.04216 11.0641 9.64879 10.4575 9.64879 9.70919C9.64879 8.96088 9.04216 8.35425 8.29385 8.35425C7.54553 8.35425 6.9389 8.96088 6.9389 9.70919C6.9389 10.4575 7.54553 11.0641 8.29385 11.0641Z" fill="#CC2539"/>
<path d="M16.4235 11.0641C17.1719 11.0641 17.7785 10.4575 17.7785 9.70919C17.7785 8.96088 17.1719 8.35425 16.4235 8.35425C15.6752 8.35425 15.0686 8.96088 15.0686 9.70919C15.0686 10.4575 15.6752 11.0641 16.4235 11.0641Z" fill="#CC2539"/>
</svg>
