<svg width="24" height="24" viewBox="0 0 24 24" fill="none" xmlns="http://www.w3.org/2000/svg">
<path d="M11.8395 22.8065C17.826 22.8065 22.6791 17.9535 22.6791 11.967C22.6791 5.98046 17.826 1.12744 11.8395 1.12744C5.85302 1.12744 1 5.98046 1 11.967C1 17.9535 5.85302 22.8065 11.8395 22.8065Z" stroke="#009906" stroke-width="1.80659" stroke-linecap="round" stroke-linejoin="round"/>
<path d="M16.5342 14.6768C16.058 15.5004 15.3736 16.1842 14.5496 16.6596C13.7255 17.1351 12.7909 17.3853 11.8396 17.3853C10.8882 17.3853 9.95363 17.1351 9.12959 16.6597C8.30555 16.1843 7.62108 15.5004 7.1449 14.6768" stroke="#009906" stroke-width="1.80659" stroke-linecap="round" stroke-linejoin="round"/>
<path d="M7.77474 11.0641C8.52305 11.0641 9.12968 10.4575 9.12968 9.70919C9.12968 8.96088 8.52305 8.35425 7.77474 8.35425C7.02643 8.35425 6.4198 8.96088 6.4198 9.70919C6.4198 10.4575 7.02643 11.0641 7.77474 11.0641Z" fill="#009906"/>
<path d="M15.9044 11.0641C16.6527 11.0641 17.2593 10.4575 17.2593 9.70919C17.2593 8.96088 16.6527 8.35425 15.9044 8.35425C15.1561 8.35425 14.5494 8.96088 14.5494 9.70919C14.5494 10.4575 15.1561 11.0641 15.9044 11.0641Z" fill="#009906"/>
</svg>