<svg width="28" height="24" viewBox="0 0 28 24" fill="none" xmlns="http://www.w3.org/2000/svg">
<path d="M24.5 12C25.8807 12 27 10.8807 27 9.5C27 8.11929 25.8807 7 24.5 7C23.1193 7 22 8.11929 22 9.5C22 10.8807 23.1193 12 24.5 12Z" stroke="#D88100" stroke-width="2" stroke-linecap="round" stroke-linejoin="round"/>
<path d="M3.5 12C4.88071 12 6 10.8807 6 9.5C6 8.11929 4.88071 7 3.5 7C2.11929 7 1 8.11929 1 9.5C1 10.8807 2.11929 12 3.5 12Z" stroke="#D88100" stroke-width="2" stroke-linecap="round" stroke-linejoin="round"/>
<path d="M9.5 6C10.8807 6 12 4.88071 12 3.5C12 2.11929 10.8807 1 9.5 1C8.11929 1 7 2.11929 7 3.5C7 4.88071 8.11929 6 9.5 6Z" stroke="#D88100" stroke-width="2" stroke-linecap="round" stroke-linejoin="round"/>
<path d="M18.5 6C19.8807 6 21 4.88071 21 3.5C21 2.11929 19.8807 1 18.5 1C17.1193 1 16 2.11929 16 3.5C16 4.88071 17.1193 6 18.5 6Z" stroke="#D88100" stroke-width="2" stroke-linecap="round" stroke-linejoin="round"/>
<path d="M20.9044 15.4817C19.6502 14.785 18.7217 13.6213 18.3211 12.2437L18.3209 12.2438C18.049 11.3082 17.4807 10.4862 16.7015 9.9012C15.9223 9.31625 14.9743 9 14 9C13.0256 9 12.0776 9.31625 11.2984 9.9012C10.5192 10.4862 9.95094 11.3082 9.67899 12.2438L9.67887 12.2437C9.27819 13.6213 8.34974 14.785 7.0955 15.4817C6.19201 15.9714 5.51163 16.7901 5.19537 17.7679C4.87912 18.7457 4.95126 19.8077 5.39684 20.7338C5.84241 21.6598 6.62725 22.3789 7.58867 22.742C8.55008 23.1051 9.61434 23.0843 10.5608 22.6839C12.7646 21.7803 15.2354 21.7803 17.4391 22.6839C18.3857 23.0847 19.4502 23.1058 20.4119 22.7428C21.3736 22.3799 22.1587 21.6607 22.6044 20.7344C23.05 19.8081 23.1221 18.7458 22.8056 17.7678C22.4891 16.7899 21.8083 15.9712 20.9044 15.4817H20.9044Z" stroke="#D88100" stroke-width="2" stroke-linecap="round" stroke-linejoin="round"/>
</svg>
