<svg width="32" height="32" viewBox="0 0 32 32" fill="none" xmlns="http://www.w3.org/2000/svg">
<path d="M11.9859 7.5C13.3666 7.5 14.4859 6.38071 14.4859 5C14.4859 3.61929 13.3666 2.5 11.9859 2.5C10.6052 2.5 9.48593 3.61929 9.48593 5C9.48593 6.38071 10.6052 7.5 11.9859 7.5Z" stroke="#00C8C8" stroke-width="2" stroke-linecap="round" stroke-linejoin="round"/>
<path d="M11.9859 7.5V16.5H22.9859L26.9859 24.5L29.9859 23.5" stroke="#00C8C8" stroke-width="2" stroke-linecap="round" stroke-linejoin="round"/>
<path d="M20.9706 20.5C20.873 22.0579 20.3218 23.5533 19.3849 24.8018C18.448 26.0504 17.1663 26.9976 15.6978 27.5267C14.2292 28.0558 12.6379 28.1437 11.12 27.7796C9.60209 27.4155 8.22386 26.6153 7.15511 25.4775C6.08637 24.3398 5.37381 22.9143 5.10524 21.3766C4.83667 19.8389 5.02382 18.2562 5.64363 16.8235C6.26344 15.3909 7.28883 14.1709 8.59346 13.3138C9.89809 12.4567 11.425 12 12.9859 12H19.9859" stroke="#00C8C8" stroke-width="2" stroke-linecap="round" stroke-linejoin="round"/>
</svg>
