<svg width="26" height="26" viewBox="0 0 26 26" fill="none" xmlns="http://www.w3.org/2000/svg">
<path d="M17.391 11.8574C17.391 13.1153 16.8913 14.3217 16.0018 15.2112C15.1123 16.1007 13.9059 16.6004 12.648 16.6004" stroke="#BB58F8" stroke-width="1.581" stroke-linecap="round" stroke-linejoin="round"/>
<path d="M6.32395 19.7186C8.11075 21.3212 10.4403 22.1841 12.84 22.1322C17.9267 22.0317 22.0623 17.8705 22.133 12.7832C22.1509 11.5262 21.9188 10.2782 21.4502 9.11178C20.9815 7.94531 20.2857 6.88363 19.4032 5.98843C18.5206 5.09323 17.469 4.38237 16.3093 3.89717C15.1496 3.41197 13.9051 3.16211 12.648 3.16211H11.8575V6.32411L1.58099 12.6481L2.94333 14.537C3.20313 14.8967 3.55854 15.1764 3.96923 15.3443C4.37992 15.5123 4.82947 15.5617 5.26685 15.4871C6.99287 15.1949 10.0159 15.0213 12.648 16.6006L12.648 16.6006L9.16641 21.4748" stroke="#BB58F8" stroke-width="1.581" stroke-linecap="round" stroke-linejoin="round"/>
<path d="M12.2528 11.0671C12.9076 11.0671 13.4385 10.5362 13.4385 9.88131C13.4385 9.22643 12.9076 8.69556 12.2528 8.69556C11.5979 8.69556 11.067 9.22643 11.067 9.88131C11.067 10.5362 11.5979 11.0671 12.2528 11.0671Z" fill="#BB58F8"/>
</svg>